<svg width="120" height="120" viewBox="0 0 120 120" fill="none" xmlns="http://www.w3.org/2000/svg">
<rect width="120" height="120" fill="#ffffff"/>
<rect width="120" height="120" fill="#ffffff"/>
<path d="M47.0836 35.456C52.4116 35.456 57.0676 36.512 61.0516 38.624C65.0356 40.736 68.1076 43.712 70.2676 47.552C72.4756 51.344 73.5796 55.736 73.5796 60.728C73.5796 65.672 72.4756 70.064 70.2676 73.904C68.1076 77.744 65.0116 80.72 60.9796 82.832C56.9956 84.944 52.3636 86 47.0836 86H28.1476V35.456H47.0836ZM46.2916 75.344C50.9476 75.344 54.5716 74.072 57.1636 71.528C59.7556 68.984 61.0516 65.384 61.0516 60.728C61.0516 56.072 59.7556 52.448 57.1636 49.856C54.5716 47.264 50.9476 45.968 46.2916 45.968H40.4596V75.344H46.2916ZM86.2201 86.576C84.0601 86.576 82.2841 85.952 80.8921 84.704C79.5481 83.408 78.8761 81.824 78.8761 79.952C78.8761 78.032 79.5481 76.424 80.8921 75.128C82.2841 73.832 84.0601 73.184 86.2201 73.184C88.3321 73.184 90.0601 73.832 91.4041 75.128C92.7961 76.424 93.4921 78.032 93.4921 79.952C93.4921 81.824 92.7961 83.408 91.4041 84.704C90.0601 85.952 88.3321 86.576 86.2201 86.576Z" fill="black"/>
</svg>