<?xml version="1.0" standalone="no"?>
<!DOCTYPE svg PUBLIC "-//W3C//DTD SVG 20010904//EN"
 "http://www.w3.org/TR/2001/REC-SVG-20010904/DTD/svg10.dtd">
<svg version="1.0" xmlns="http://www.w3.org/2000/svg"
 width="3043.000000pt" height="2892.000000pt" viewBox="0 0 3043.000000 2892.000000"
 preserveAspectRatio="xMidYMid meet">

<g transform="translate(0.000000,2892.000000) scale(0.100000,-0.100000)"
fill="#000000" stroke="none">
<path d="M9130 17215 l0 -4825 1913 0 c1898 0 2096 3 2412 36 1450 148 2668
794 3430 1818 403 542 684 1185 819 1871 122 620 137 1290 45 1945 -101 715
-352 1380 -740 1957 -258 385 -604 750 -974 1028 -635 476 -1399 789 -2245
919 -488 75 -533 76 -2717 76 l-1943 0 0 -4825z m3980 2792 c392 -57 680 -142
961 -283 620 -311 1051 -859 1234 -1570 132 -512 147 -1164 39 -1704 -101
-504 -309 -920 -623 -1244 -415 -428 -890 -649 -1616 -753 -90 -13 -247 -17
-867 -20 l-758 -4 0 2801 0 2801 758 -4 c638 -3 775 -6 872 -20z"/>
<path d="M20057 14830 c-177 -17 -384 -73 -522 -142 -229 -115 -451 -329 -563
-545 -94 -181 -130 -319 -139 -535 -15 -369 89 -654 331 -906 201 -210 457
-343 761 -398 141 -25 461 -26 600 0 294 53 535 177 734 375 111 111 184 213
246 344 168 354 146 822 -54 1161 -199 338 -540 566 -946 631 -115 19 -334 26
-448 15z"/>
</g>
</svg>
