<?xml version="1.0" standalone="no"?>
<!DOCTYPE svg PUBLIC "-//W3C//DTD SVG 20010904//EN"
 "http://www.w3.org/TR/2001/REC-SVG-20010904/DTD/svg10.dtd">
<svg version="1.0" xmlns="http://www.w3.org/2000/svg"
 width="262.000000pt" height="206.000000pt" viewBox="0 0 262.000000 206.000000"
 preserveAspectRatio="xMidYMid meet">

<g transform="translate(0.000000,206.000000) scale(0.100000,-0.100000)"
fill="#FFFFFF" stroke="none">
<path d="M10 1031 l0 -1011 418 0 c547 0 645 13 852 111 297 141 482 395 530
728 18 117 8 343 -19 443 -100 380 -354 621 -751 714 -64 15 -143 18 -552 21
l-478 4 0 -1010z m885 574 c276 -59 425 -261 425 -578 0 -186 -53 -329 -159
-430 -118 -113 -232 -147 -488 -147 l-173 0 0 585 0 585 163 0 c104 0 187 -6
232 -15z"/>
<path d="M2206 510 c-106 -42 -166 -132 -166 -247 0 -94 35 -164 104 -210 60
-41 103 -53 192 -53 170 0 297 129 281 286 -9 91 -66 172 -152 217 -59 30
-192 34 -259 7z"/>
</g>
</svg>
