<svg width="40" height="40" viewBox="0 0 40 40" fill="none" xmlns="http://www.w3.org/2000/svg">
<path d="M24.3984 0H0V32.8636L3.98427 37.1776V4.14917H28.5476L24.3984 0Z" fill="black"/>
<path d="M31.5348 6.63989L6.80469 6.9716V40.0001H31.0363L39.6664 31.37V14.7733L31.5329 6.63989H31.5348ZM35.7674 29.4613L29.211 36.0177H10.789V10.954L29.5029 10.664L35.7693 16.9304V29.4613H35.7674Z" fill="black"/>
<path d="M13.2777 13.6094V33.1952H28.5476L33.3602 28.3826V18.5907L28.4642 13.6947L13.2777 13.6113V13.6094ZM28.5476 26.8871L26.7222 28.7124H17.7605V17.7585L26.309 17.6751L28.5495 19.9156V26.8871H28.5476Z" fill="black"/>
</svg>
